<svg xmlns="http://www.w3.org/2000/svg" width="517" height="518" fill="none" viewBox="0 0 517 518"><g clip-path="url(#clip0_111_2205)"><path fill="#000000" d="M224.88 350.653c.38.382 6.472 73.292 6.472 74.318 0 1.026 2.748 4.826 2.748 4.826s-2.482-11.017-2.604-36.562c0-.027-4.1-47.205-4.1-47.205l.762-1.881 4.949 40.11s.35-5.76.403-5.947a15.345 15.345 0 0 1 1.523-3.326s-2.284-30.661-2.665-35.12c-.38-4.459-9.259-19.454-9.259-19.454s1.382 29.875 1.771 30.241Zm67.255 0c.381-.381 1.752-30.226 1.752-30.226s-8.89 14.991-9.255 19.454c-.366 4.463-2.665 35.12-2.665 35.12a15.54 15.54 0 0 1 1.568 3.327c.054.186.404 5.946.404 5.946l4.949-40.109.761 1.88s-4.153 47.163-4.119 47.19c-.141 25.557-2.623 36.562-2.623 36.562s2.756-3.815 2.756-4.826c0-1.01 6.096-73.925 6.472-74.318Zm-67.484-81.63 3.214 1.087 30.635.892 30.651-.908 3.209-1.087-67.709.016ZM258.5 456.388l22.153-.611c0-.282 4.546-24.184 4.546-24.184s-3.255 9.193-6.221 9.586c-4.884.664-14.824 1.217-20.478 1.217-5.653 0-15.609-.553-20.478-1.217-2.985-.381-6.221-9.586-6.221-9.586s4.534 23.902 4.534 24.184l22.165.611Zm33.472-167.629c-1.645-10.761-1.443-13.679-2.562-16.559l-7.283 5.298 3.517 11.669-.445 1.053-4.801-10.044-1.484 4.578 11.36 25.965s2.185-18.825 1.698-21.96Zm-19.767-4.085-2.47 3.07 6.658 17.654a76.843 76.843 0 0 0 2.345-8.179c1.082-4.798-2.725-15.708-2.725-15.708l-3.808 3.163Zm9.998 105.219-11.482 29.025 2.265 3.566 4.386-12.969.38 2.228-2.371 13.274.833 3.098 4.428 1.716s.403-8.705 2.101-20.167c.568-3.967-.536-19.771-.536-19.771h-.004Zm30.89-182.475a31.384 31.384 0 0 0 22.05-9.601 31.507 31.507 0 0 0 8.818-22.41c0-.729-.053-1.423-.106-2.14l-7.744 9.239-3.019 7.358s-6.883 8.51-27.297 12.076a248.218 248.218 0 0 1-3.655 3.899 32.461 32.461 0 0 0 10.957 1.579h-.004Zm31.854-63.748-33.335 18.504 3.347 12.409-1.904-1.049-3.67-10.204-29.314 17.829-2.536 19.012s1.729-2.899 4.131-4.368c24.095-14.537 72.715-39.766 72.715-39.766l-9.434-12.367Zm-51.978 57.736a31.548 31.548 0 0 0 6.491 3.544c.944-.919 2.01-1.964 3.305-3.284-3.807-.492-8.189-1.495-8.189-1.495l-1.607 1.235Zm35.699-28.021-26.649 14.568.727.572 6.179-1.812a10.168 10.168 0 0 0 6.529 2.353c5.668 0 9.849-5.122 10.199-9.536.175-2.346-.038-3.223-.038-3.223l2.737-2.037.316-.885ZM201.554 88.817l.133.29 12.385 26.32 14.044-.381-14.867-21.095-11.695-5.134Zm113.778.298.133-.302-11.707 5.15-14.87 21.094 14.06.382 12.384-26.324Zm-125.135 31.191-16.37 20.98 32.516 18.744 6.853-15.761-6.758-7.629-.297-1.782 8.635 7.683 34.899-4.318h17.703l34.884 4.318 8.661-7.683-.293 1.782-6.773 7.629 6.8 15.761 32.554-18.759-16.393-20.98-6.232 5.588-.606-.923 4.95-5.722-38.258-1.198-7.907 9.846h-1.58l19.725-40.053-38.41 3.952-38.394-3.952 19.724 40.053h-1.565l-7.918-9.846-38.235 1.198 4.95 5.722-.617.923-6.248-5.573Zm47.589 318.249c2.284 1.179 20.642 1.369 20.737 1.396.095.027 18.43-.217 20.722-1.396 2.292-1.179 5.585-8.625 5.585-8.625l-3.75 4.395-7.043-2.865-15.514 1.526-15.544-1.526-7.028 2.865-3.735-4.395s3.286 7.45 5.562 8.625h.008Zm4.115-76.763c1.066 4.405 2.665 6.244 4.679 8.96 2.014 2.716 4.116 6.732 5.939 6.732 1.824 0 3.347-.606 5.92-.606 2.574 0 4.062.606 5.939.606 1.877 0 3.906-3.986 5.924-6.713 2.018-2.727 3.617-4.555 4.694-8.96 1.077-4.406 2.379-28.422 2.379-28.422l-17.352 13.671-1.496 28.33-.648-.648-1.012-27.682-17.349-13.671s1.31 24.031 2.376 28.403h.007Zm11.498-60.3 3.928-13.084-2.912-1.396-4.949-.458c1.279 12.207 1.983 12.515 2.063 12.664.457.962 1.87 2.274 1.87 2.274Zm-12.747 3.906 6.625-17.654-2.482-3.07-3.808-3.163s-3.776 10.895-2.725 15.693a73.297 73.297 0 0 0 2.39 8.194Zm24.838-6.18c.065-.149.761-.442 2.063-12.664l-4.949.458-2.928 1.396 3.952 13.084s1.405-1.312 1.862-2.274Zm51.395-70.046 171.318 3.216 2.266.042 3.639.069-110.317-41.01-66.906 37.683Zm-89.279 43.039c-1.12 2.88-.918 5.799-2.563 16.559-.487 3.124 1.714 21.953 1.714 21.953l11.349-25.966-1.489-4.577-4.789 10.044-.442-1.053 3.51-11.661-7.29-5.299Zm156.227-86.154-18.442-7.839-12.792-15.388-5.474 6.535c.118.474.207.956.266 1.441.762 8.774-.727 22.857-15.989 33.48-12.522 8.179-26.795 5.421-31.043 4.196-.419-.126-5.711 5.875-6.057 6.969a23.524 23.524 0 0 0-1.055 10.223l-1.321-1.201s-.541-7.08.107-9.487c.731-2.556 4.968-7.537 5.288-7.881-2.764-1.575-5.989-3.91-6.312-4.142 0 0-6.057 3.913-6.313 5.42-.761 4.925 3.427 19.66 3.899 21.621.24 1.011 1.389 1.755 2.227 2.155l4.664-2.636-2.993 9.689-15.3 8.926 1.633 1.492 12.796-6.535-.808 4.051-21.654 11.966-10.66.946-10.633-.946-21.651-11.966-.837-4.051 12.818 6.515 1.633-1.491-15.316-8.926-2.969-9.689 4.671 2.636c.811-.401 1.953-1.144 2.212-2.155.457-1.961 4.656-16.696 3.887-21.621-.228-1.526-6.301-5.42-6.301-5.42-.312.232-3.548 2.567-6.316 4.142.328.344 4.569 5.341 5.277 7.881.659 2.407.148 9.487.148 9.487l-1.336 1.201a23.838 23.838 0 0 0-1.077-10.223c-.354-1.094-5.642-7.095-6.061-6.969-4.222 1.244-18.495 4.002-31.043-4.196-15.259-10.623-16.751-24.71-15.99-33.48.065-.454.164-.946.259-1.442l-5.448-6.515-12.799 15.388-18.419 7.839s81.403 43.104 85.899 53.456c2.665 6.062 1.215 26.523 1.215 26.523l.175-.157-.027.157h76.1l-.054-.157.16.157s-1.427-20.461 1.215-26.523c4.523-10.341 85.941-53.456 85.941-53.456Zm-100.819 16.875s-1.295-1.316-2.079-2.239l-1.294.763s-2.749 4.227-2.642 6.328c.43 7.881 1.819 19.584 1.819 19.584l-.418.763s-1.592-11.943-3.507-19.454c-.932-3.719 1.713-21.609 3.183-31.05 1.405-8.827 3.872-24.795 21.814-33.484l-32.066-4.196s-1.74 16.257-2.483 28.422c-.472 7.564-6.137 59.022-6.137 59.022l-.704 1.861-.678-1.88s-5.665-51.458-6.152-59.022c-.761-12.165-2.494-28.422-2.494-28.422l-32.04 4.196c17.916 8.678 20.398 24.657 21.788 33.484 1.485 9.441 4.127 27.331 3.183 31.05-1.904 7.518-3.507 19.454-3.507 19.454l-.403-.763s1.386-11.703 1.808-19.584c.107-2.102-2.63-6.328-2.63-6.328l-1.31-.763c-.761.923-2.052 2.239-2.052 2.239.498 1.574.811 3.201.933 4.848.498 5.722-4.858 22.235-6.073 25.859l16.192 9.155h26.885l16.177-9.155c-1.215-3.624-6.587-20.122-6.092-25.859a21.63 21.63 0 0 1 .979-4.829ZM271.01 384.29c.761-1.145 5.692-6.249 5.448-8.705-.244-2.457-.971-9.437-.971-9.437s-6.411 13.702-9.106 13.702c-2.696 0-5.894-.687-7.908-.687-2.014 0-5.474.702-7.838.702-2.365 0-9.092-13.706-9.092-13.706s-.689 7.854-.986 9.918c-.297 2.064 4.858 7.339 5.452 8.232.594.892 4.047 2.288 5.113 2.288 1.066 0 5.303-4.405 5.303-4.405s.484-.569 2.182-.569 2.215.569 2.215.569 4.062 4.405 5.087 4.405c1.024 0 4.317-1.148 5.101-2.311v.004Zm-19.229 34.117.083 6.652 3.994.687-.229-7.629c-.095-.138-2.052-2.869-2.052-2.869l-1.796 3.159Zm-4.569-.435c0 .286.381 6.103.381 6.103l3.3.549-.441-6.664-1.729-2.731s-1.515 2.461-1.515 2.739l.004.004Zm11.288-3.334h-.03l-1.927 2.918v8.518l.461.122 1.466.336h.041l1.459-.336.472-.122v-8.537l-1.931-2.918-.011.019Zm2.631 11.112 3.993-.687.095-6.653-1.808-3.166-2.037 2.869-.243 7.637Zm4.983-1.118 3.308-.549s.381-5.829.381-6.104c0-.274-1.523-2.731-1.523-2.731l-1.701 2.731-.465 6.653Zm-31.838-14.987c1.675 11.443 2.105 20.167 2.105 20.167l4.412-1.716.849-3.098-2.387-13.274.362-2.228 4.386 12.969 2.284-3.566-11.467-29.025s-1.115 15.823-.537 19.771h-.007Zm187.167-246.384-13.885 18.279-4.165 5.486s5.543-3.292 8.875-4.913l.304-.142.13-.053.224-.095.149-.061.266-.107.137-.05.419-.156c3.48-1.251 10.279-3.052 17.756-4.906l2.421-.591c13.851-3.372 28.934-6.664 28.934-6.664l-38.585-9.982-2.98 3.955Zm3.807-51s-4.546 18.409-16.729 38.065a123.588 123.588 0 0 1-11.729 16.021l-.099.118c-.507.58-1.024 1.145-1.523 1.725a97.351 97.351 0 0 1-13.568 12.401l4.222 1.369s5.208-1.953 12.54-9.658c4.051-4.261 8.756-10.25 13.546-18.615 6.243-10.856 12.704-25.714 18.274-45.965l-4.934 4.539Zm-28.23 26.53a597.29 597.29 0 0 1-7.157 5.47c-8.44 6.34-15.415 11.291-15.415 11.291l-1.667 13.397 2.996 7.663s25.012-13.637 41.824-55.749c-3.392 4.173-11.969 11.241-20.581 17.913v.015Zm-185.374-23.268-15.517-20.854-2.418-3.235-15.875-10.6-16.698-11.147 28.934 46.56 21.574-.724Zm-83.374 14.968 19.671 12.469 12.03 7.629 6.472-7.602s-5.387-3.128-13.325-7.82c-4.1-2.429-8.882-5.26-13.956-8.296-19.241-11.539-42.697-25.977-49.18-31.642-4.61-4.054-4.1-12.11-3.426-12.29 2.482 8.06 12.639 14.61 25.712 23.169 5.14 3.365 15.016 9.3 25.108 15.258a4090.833 4090.833 0 0 0 20.261 11.89c6.708 3.903 11.349 6.58 11.349 6.58l18.655-21.643s-4.26-1.595-10.896-4.097a5048.38 5048.38 0 0 1-23.299-8.838c-23.368-8.919-50.471-19.454-52.507-21.045-4.37-3.433-8.3-8.773-8.757-12.367-1.012-8.346 3.29-16.902 3.29-16.902S79.206 70.584 78.15 77.637c-2.01 13.427 6.651 25.313 6.651 25.313l43.47 27.541Zm319.885 197.5-12.883-19.267-30.118-45.011-60.89-21.716s-31.626 2.46-32.741 3.101c-1.116.641-3.484 2.926-3.484 2.926l-1.572 4.276 118.982 81.348 10.139 6.935 38.676 26.446-26.109-39.034v-.004Zm-256.76-148.48c.323 4.433 4.507 9.536 10.172 9.536a10.186 10.186 0 0 0 6.544-2.353l6.179 1.812.727-.572-26.672-14.568.324.866 2.752 2.037s-.202.896-.026 3.242Zm-28.725-23.474s48.62 25.229 72.719 39.766c2.399 1.469 4.116 4.368 4.116 4.368l-2.54-19.012-29.314-17.818-3.697 10.193-1.903 1.049 3.346-12.397-33.319-18.516-9.408 12.367ZM258.5 207.91l.86-.728 6.385-67.239h-14.478l6.38 67.239.853.728Zm49.873-46.556-5.856-15.868c-13.005 4.959-20.249 19.622-21.7 32.248l27.556-16.38Zm-93.856-15.868-5.89 15.868 27.586 16.38c-1.469-12.634-8.714-27.289-21.692-32.256l-.004.008Zm-30.571 44.385-3.023-7.358-7.739-9.246c-.08.717-.107 1.411-.122 2.14a31.513 31.513 0 0 0 2.18 12.086 31.465 31.465 0 0 0 6.633 10.328 31.349 31.349 0 0 0 22.054 9.597c3.711.104 7.412-.43 10.942-1.579a840.07 840.07 0 0 1-3.64-3.899c-20.402-3.566-27.281-12.076-27.281-12.076l-.004.007Zm33.632 15.087a30.883 30.883 0 0 0 6.472-3.544l-1.592-1.236s-4.359 1.003-8.189 1.495a130.55 130.55 0 0 0 3.313 3.277l-.004.008ZM106.644 333.663 87.563 346.74l45.966 46.064 5.787-26.397-32.672-32.744Zm-6.115-6.141L210.554 252.3l-1.58-4.276s-2.372-2.308-3.48-2.926c-1.108-.618-32.741-3.101-32.741-3.101l-60.913 21.712-40.267 60.231-2.71 4.047-26.113 39.038 38.68-26.446 19.103-13.057h-.004Zm-24.924-24.951L32.12 259.006l18.472-18.482-27.521.496-5.22.096L0 259.006l62.733 62.829 12.872-19.264Zm300.728 97.366-5.776-26.385-7.918-36.2s-30.868-24.997-37.454-30.036c-2.696-2.056-18.724-6.053-18.724-6.053l75.144 122.827-5.276-24.138.004-.015ZM126.505 164.406c8.429 8.773 14.737 12.206 14.737 12.206l2.993-7.694-1.675-13.396s-4.063-2.884-9.739-7.069a715.717 715.717 0 0 1-12.845-9.692c-8.604-6.668-17.158-13.733-20.558-17.898a150.022 150.022 0 0 0 12.986 25.492 119.013 119.013 0 0 0 14.101 18.051Zm251.187 201.982 5.79 26.397 45.978-46.045-19.092-13.058-32.676 32.706ZM258.5 485.813l-93.532-93.727-12.209 19.95L258.5 518.011l105.741-105.963-12.182-19.95-93.559 93.715Zm-99.745-99.94 51.776-84.622s-16.028 3.998-18.727 6.054c-6.571 5.039-37.462 30.036-37.462 30.036l-18.97 86.73 11.2-18.233 12.209-19.95-.026-.015ZM26.539 232.43l1.218-.023 172.358-3.235-66.89-37.683-110.314 41.01 3.628-.069Zm439.899 8.083 18.453 18.493-43.492 43.565 12.899 19.264L517 259.006l-17.832-17.879-5.208-.095-27.522-.519ZM345.301 102.82l11.494-4.325-5.402-5.42-6.092 9.745Zm-244.159 87.009a.592.592 0 0 0-.121-.053c-.568-.275-4.424-1.839-25.161-6.767l-32.863 32.915 51.038-18.977 7.107-7.118Zm314.868-.053c-.053 0-.084.038-.137.053l7.092 7.118 51.053 18.977-32.851-32.915c-20.745 4.928-24.605 6.492-25.157 6.767Zm-310.154-34.865.057.099c.278.466.556.924.83 1.378l.099.164c.258.423.517.839.761 1.247l.148.236.716 1.118.198.305c.217.332.434.656.651.981l.251.381.545.793c.636.924 1.264 1.805 1.884 2.652l.195.267c.194.259.38.514.578.762l.286.382.495.641.361.461c.137.176.278.347.415.519l.438.546.324.381c.175.214.35.427.525.633l.217.256.628.732.099.115a76.541 76.541 0 0 0 2.109 2.323c7.348 7.709 12.56 9.669 12.56 9.669l4.226-1.369a96.727 96.727 0 0 1-13.287-12.096 122.03 122.03 0 0 1-13.664-18.195c-12.182-19.645-16.75-38.046-16.75-38.046l-4.897-4.539c5.563 20.255 12.027 35.112 18.274 45.968.248.431.488.813.728 1.236Zm241.455-15.86s4.71-2.591 11.513-6.375c4.085-2.288 8.92-4.989 13.953-7.827l3.24-1.835 3.369-1.907c10.233-5.821 20.227-11.642 25.37-15.006 13.058-8.56 23.223-15.11 25.709-23.17.663.18 1.142 8.236-3.426 12.29-5.985 5.234-26.726 17.62-45.251 28.301-7.603 4.36-14.787 8.46-20.474 11.653a2814.804 2814.804 0 0 1-11.802 6.603l7.538 8.796 12.019-7.629 19.682-12.469 43.458-27.534s8.661-11.886 6.639-25.313c-1.054-7.041-17.325-22.692-17.325-22.692s4.305 8.556 3.319 16.902c-.43 3.597-4.397 8.933-8.756 12.366-2.048 1.606-29.234 12.05-52.667 20.893l-.685.259c-17.981 6.786-33.571 12.561-33.571 12.561l18.148 21.133ZM165.642 93.074l-5.585 5.596c3.898 1.488 7.856 2.991 11.874 4.509l-6.289-10.105Zm139.742 22.46 21.556.721 10.344-16.631 7.926-12.74 10.686-17.185-16.713 11.13-15.887 10.597-17.912 24.108Zm-222.47 60.407c1.447.351 2.872.7 4.275 1.049 5.254 1.312 10.055 2.586 13.428 3.627l.225.069.335.107.342.11.156.05c.819.267 1.523.515 2.106.74l.064.027.286.114.107.042.217.095.289.134c3.32 1.621 8.848 4.913 8.848 4.913l-4.162-5.485-13.873-18.272-3.003-3.959-38.566 9.971s15.084 3.292 28.934 6.664l-.008.004ZM258.5 32.175l50.634 50.12 21.879-9.64-56.459-56.562L258.5 0l-72.502 72.655 21.887 9.64 50.615-50.12Z"/></g><defs><clipPath id="clip0_111_2205"><path fill="#fff" d="M0 0h517v518H0z"/></clipPath></defs></svg>